<?xml version="1.0" encoding="UTF-8"?>
<svg viewBox="0 0 160 160" xmlns="http://www.w3.org/2000/svg" xmlns:xlink="http://www.w3.org/1999/xlink">
 <defs>
  <linearGradient id="a">
   <stop stop-color="#fff" offset="0"/>
   <stop stop-color="#fff" offset="1"/>
  </linearGradient>
  <linearGradient id="d" x1=".035088" x2=".81579" y1=".85938" y2=".046875" xlink:href="#a"/>
  <linearGradient id="e" x1="-.94444" x2="4.1111" y1=".78125" y2=".375" xlink:href="#a"/>
 </defs>
 <path d="m87.823 75.005c23.026-15.683 15.736-45.142-1.3609-59.772-23.143-18.851-54.302-4.7772-64.168 12.883 19.332-30.331 53.965-12.379 60.936-5.4516 8.4982 7.6219 24.303 36.234 4.5935 52.34z" fill="#7f7f7f"/>
 <path d="m30.729 18.432c-22.496 14.851-17.814 44.559 3.945 60.793 24.182 17.168 39.276 4.6048 53.819-4.6771-23.177 14.619-39.641 4.5234-48.503 0.1145-12.043-6.7294-29.03-33.722-9.261-56.231z" fill="#bfbfbf"/>
 <path d="m22.758 27.919c-11.572 14.657-3.0858 34.136 5.7859 43.78 3.4715-6.9431-19.865-22.179-5.7859-43.78z" fill="url(#e)"/>
 <path d="m51.197 12.885c-23.336-0.3857-40.263 27.711-14.998 56.062 28.351-9.643-21.067-47.768 14.998-56.062z" fill="#fff"/>
 <path d="m82.24 79.943c14.722 13.199 30.968 51.02 41.12 55.081 8.122 1.523 13.707-3.3 13.96-12.438-1.523-11.422-38.328-37.058-46.958-48.481-1.7768 0.2538-7.1072 3.5536-8.1226 5.838z" fill="#442400"/>
 <path d="m88.552 84.547c10.099 13.177 29.505 48.096 33.951 48.262 0.508-2.538 3.904-5.654 8.473-7.684-14.722-12.692-19.406-9.453-42.424-40.578z" fill="url(#d)"/>
 <path d="m122.19 133.29c0.090996-2.749 6.022-9.731 14.318-8.131-2.03 5.331-4.673 12.954-14.318 8.131z"/>
</svg>
